<?xml version="1.0" encoding="UTF-8"?>
<svg xmlns="http://www.w3.org/2000/svg" version="1.1" viewBox="0 0 512 64">
  <defs>
    <style>
      .cls-1 {
        fill: #de86ea;
      }

      .cls-2 {
        fill: #fff;
      }
    </style>
  </defs>
  <!-- Generator: Adobe Illustrator 28.6.0, SVG Export Plug-In . SVG Version: 1.2.0 Build 709)  -->
  <g>
    <g id="fore">
      <g id="Dark">
        <g>
          <path class="cls-1" d="M54.4,14.5v4.5l-13.5,13.5,13.5,13.5v4.5h-9l-18-18,18-18h9M36.4,14.5v4.5l-13.5,13.5,13.5,13.5v4.5h-9l-18-18L27.4,14.5h9M56.4,12.5h-11.83l-.59.59-5.59,5.59v-6.17h-11.83l-.59.59L7.98,31.09l-1.41,1.41,1.41,1.41,18,18,.59.59h11.83v-6.17l5.59,5.59.59.59h11.83v-7.33l-.59-.59-12.09-12.09,12.09-12.09.59-.59v-7.33h0Z"/>
          <path class="cls-1" d="M79.57,14.5v36h-9V14.5h9M81.57,12.5h-13v40h13V12.5h0Z"/>
          <path class="cls-1" d="M123.66,14.5v4.5l-13.5,13.5,13.5,13.5v4.5h-9l-18-18,18-18h9M92.16,14.5v36h-9V14.5h9M125.66,12.5h-11.83l-.59.59-18,18-1.09,1.09V12.5h-13v40h13v-19.67l1.09,1.09,18,18,.59.59h11.83v-7.33l-.59-.59-12.09-12.09,12.09-12.09.59-.59v-7.33h0Z"/>
          <path class="cls-1" d="M167.74,14.5v36h-9v-13.5h-18l9-9h9v-13.5h9M136.24,14.5v13.5h9l-9,9v13.5h-9V14.5h9M169.74,12.5h-13v13.5h-18.5v-13.5h-13v40h13v-13.5h18.5v13.5h13V12.5h0Z"/>
          <path class="cls-1" d="M211.83,14.5v9h-18l-9-9h27M180.33,14.5l31.5,31.5v4.5h-40.5v-9h22.5l-22.5-22.5v-4.5h9M213.83,12.5h-44.5v7.33l.59.59,19.09,19.09h-19.67v13h44.5v-7.33l-.59-.59-19.09-19.09h19.67v-13h0Z"/>
          <path class="cls-1" d="M224.41,14.5l31.5,31.5v4.5h-9l-22.5-22.5v9h4.5l9,9h-13.5v4.5h-9V14.5h9M225.24,12.5h-11.83v40h13v-4.5h15.17l3.91,3.91.59.59h11.83v-7.33l-.59-.59-31.5-31.5-.59-.59h0ZM226.41,35v-2.17l2.17,2.17h-2.17Z"/>
          <path class="cls-1" d="M300,14.5v36h-9l-31.5-31.5v-4.5h9l22.5,22.5V14.5h9M259.5,23.5l9,9v18h-9v-27M302,12.5h-13v19.67l-19.09-19.09-.59-.59h-11.83v40h13v-19.67l19.09,19.09.59.59h11.83V12.5h0Z"/>
          <path class="cls-1" d="M344.09,14.5l-9,9h-27l-4.5-4.5v-4.5h40.5M344.09,19v31.5h-31.5l9-9h13.5v-4.5h-9l18-18M330.59,28l-9,9h-9v-4.5l4.5-4.5h13.5M317.09,41.5l-9,9h-4.5v-4.5l4.5-4.5h9M348.91,12.5h-47.33v7.33l.59.59,4.5,4.5.59.59h27.5l-.5.5h-18l-.59.59-4.5,4.5-.59.59v7.33h22.5v.5h-25.83l-.59.59-4.5,4.5-.59.59v7.33h44.5V15.33l2.83-2.83h0Z"/>
          <path class="cls-1" d="M388.17,14.5v36h-9v-4.5h-13.5l9-9h4.5v-9l-22.5,22.5h-9v-4.5l31.5-31.5h9M390.17,12.5h-11.83l-.59.59-31.5,31.5-.59.59v7.33h11.83l.59-.59,3.91-3.91h15.17v4.5h13V12.5h0ZM375,35l2.17-2.17v2.17h-2.17Z"/>
          <path class="cls-1" d="M418.76,14.5l13.5,13.5v9l-13.5,13.5h-27l9-9h13.5l9-9-9-9h-13.5v13.5l-9,9V14.5h27M419.59,12.5h-29.83v37.17l-2.83,2.83h32.66l.59-.59,13.5-13.5.59-.59v-10.66l-.59-.59-13.5-13.5-.59-.59h0ZM402.76,25.5h10.67l7,7-7,7h-12.34l1.09-1.09.59-.59v-12.33h0Z"/>
          <path class="cls-1" d="M444.84,14.5v36h-9V14.5h9M446.84,12.5h-13v40h13V12.5h0Z"/>
          <path class="cls-1" d="M488.02,14.5l18,18-18,18h-9v-4.5l13.5-13.5-13.5-13.5v-4.5h9M470.02,14.5l18,18-18,18h-9v-4.5l13.5-13.5-13.5-13.5v-4.5h9M488.84,12.5h-11.83v6.17l-5.59-5.59-.59-.59h-11.83v7.33l.59.59,12.09,12.09-12.09,12.09-.59.59v7.33h11.83l.59-.59,5.59-5.59v6.17h11.83l.59-.59,18-18,1.41-1.41-1.41-1.41-18-18-.59-.59h0Z"/>
        </g>
        <g>
          <path class="cls-2" d="M2.4,27.5L20.4,9.5h9v4.5l-13.5,13.5,13.5,13.5v4.5h-9L2.4,27.5ZM20.4,27.5l18-18h9v4.5l-13.5,13.5,13.5,13.5v4.5h-9l-18-18Z"/>
          <path class="cls-2" d="M63.57,20.29v-10.79h9v36h-9v-25.21Z"/>
          <path class="cls-2" d="M76.16,20.29v-10.79h9v36h-9v-25.21ZM89.66,27.5l18-18h9v4.5l-13.5,13.5,13.5,13.5v4.5h-9l-18-18Z"/>
          <path class="cls-2" d="M120.24,20.29v-10.79h9v13.5h9l-9,9v13.5h-9v-25.21ZM151.74,32h-18l9-9h9v-13.5h9v36h-9v-13.5Z"/>
          <path class="cls-2" d="M164.33,39.21v-2.71h22.5l-22.5-22.5v-4.5h9l31.5,31.5v4.5h-40.5v-6.29ZM177.83,9.5h27v9h-18l-9-9Z"/>
          <path class="cls-2" d="M208.41,20.29v-10.79h9l31.5,31.5v4.5h-9l-22.5-22.5v9h4.5l9,9h-13.5v4.5h-9v-25.21Z"/>
          <path class="cls-2" d="M252.5,14v-4.5h9l22.5,22.5V9.5h9v36h-9l-31.5-31.5ZM252.5,26.59v-8.09l9,9v18h-9v-18.91Z"/>
          <path class="cls-2" d="M296.59,14v-4.5h40.5l-9,9h-27l-4.5-4.5ZM296.59,42.34v-1.34l4.5-4.5h9l-9,9h-4.5v-3.16ZM314.59,36.5h13.5v-4.5h-9l18-18v31.5h-31.5l9-9ZM305.59,27.5l4.5-4.5h13.5l-9,9h-9v-4.5Z"/>
          <path class="cls-2" d="M340.67,42.34v-1.34l31.5-31.5h9v36h-9v-4.5h-13.5l9-9h4.5v-9l-22.5,22.5h-9v-3.16Z"/>
          <path class="cls-2" d="M393.76,36.5h13.5l9-9-9-9h-13.5v13.5l-9,9V9.5h27l13.5,13.5v9l-13.5,13.5h-27l9-9Z"/>
          <path class="cls-2" d="M428.84,20.29v-10.79h9v36h-9v-25.21Z"/>
          <path class="cls-2" d="M454.02,42.34v-1.34l13.5-13.5-13.5-13.5v-4.5h9l18,18-18,18h-9v-3.16ZM472.02,41l13.5-13.5-13.5-13.5v-4.5h9l18,18-18,18h-9v-4.5Z"/>
        </g>
      </g>
    </g>
  </g>
</svg>